<svg xmlns="http://www.w3.org/2000/svg" xmlns:xlink="http://www.w3.org/1999/xlink" id="eNivFTGf5gB1" viewBox="0 0 122 122" shape-rendering="geometricPrecision" text-rendering="geometricPrecision"><defs><linearGradient id="eNivFTGf5gB3-fill" x1="-0.079006" y1="0.5" x2="0.843929" y2="0.5" spreadMethod="pad" gradientUnits="objectBoundingBox" gradientTransform="matrix(1 0 0 1 0 0)"><stop id="eNivFTGf5gB3-fill-0" offset="0%" stop-color="rgb(24,220,225)"/><stop id="eNivFTGf5gB3-fill-1" offset="100%" stop-color="rgb(255,132,173)"/></linearGradient></defs><g id="eNivFTGf5gB2" mask="url(#eNivFTGf5gB4)"><rect id="eNivFTGf5gB3" width="175.444522" height="173.060622" rx="0" ry="0" transform="matrix(-0.433345 0.901228 -0.901228 -0.433345 184.506982 23.491361)" fill="url(#eNivFTGf5gB3-fill)" stroke="none" stroke-width="0"/><mask id="eNivFTGf5gB4" mask-type="alpha"><path id="eNivFTGf5gB5" d="M78,33L78,49C78,49.7661,77.5623,50.4649,76.8731,50.7994C76.1838,51.1338,75.364,51.0451,74.7623,50.571L62.7831,41.1329C62.2364,41.3691,61.6335,41.5,61,41.5C58.5147,41.5,56.5,39.4853,56.5,37C56.5,34.5147,58.5147,32.5,61,32.5C63.4853,32.5,65.5,34.5147,65.5,37C65.5,37.3718,65.4549,37.733,65.3699,38.0786L74,44.8781L74,33C74,25.8203,68.1797,20,61,20C53.8203,20,48,25.8203,48,33L48,38.0388L77.2494,61.4383C77.7238,61.8178,78,62.3924,78,63L78,71C78,80.3888,70.3888,88,61,88C51.6112,88,44,80.3888,44,71L44,53C44,52.2312,44.4407,51.5304,45.1336,51.1974C45.8266,50.8644,46.649,50.958,47.2494,51.4383L59.5434,61.2735C59.9948,61.0969,60.4861,61,61,61C63.2091,61,65,62.7909,65,65C65,67.2091,63.2091,69,61,69C58.7909,69,57,67.2091,57,65C57,64.7951,57.0154,64.5939,57.0451,64.3973L48,57.1612L48,71C48,78.1797,53.8203,84,61,84C68.1797,84,74,78.1797,74,71L74,63.9613L44.7506,40.5617C44.2762,40.1822,44,39.6076,44,39L44,33C44,23.6112,51.6112,16,61,16C70.3888,16,78,23.6112,78,33ZM61,35.5C60.1716,35.5,59.5,36.1716,59.5,37C59.5,37.8284,60.1716,38.5,61,38.5C61.8284,38.5,62.5,37.8284,62.5,37C62.5,36.1716,61.8284,35.5,61,35.5ZM38,69C39.1046,69,40,69.8954,40,71C40,82.598,49.402,92,61,92C72.598,92,82,82.598,82,71C82,69.8954,82.8954,69,84,69C85.1046,69,86,69.8954,86,71C86,84.8071,74.8071,96,61,96C47.1929,96,36,84.8071,36,71C36,69.8954,36.8954,69,38,69ZM61,99C62.1046,99,63,99.8954,63,101L63,102L71,102C72.1046,102,73,102.895,73,104C73,105.105,72.1046,106,71,106L51,106C49.8954,106,49,105.105,49,104C49,102.895,49.8954,102,51,102L59,102L59,101C59,99.8954,59.8954,99,61,99ZM61,117C91.9279,117,117,91.9279,117,61C117,30.0721,91.9279,5,61,5C30.0721,5,5,30.0721,5,61C5,91.9279,30.0721,117,61,117ZM0,61C0,27.3106,27.3106,0,61,0C94.6894,0,122,27.3106,122,61C122,94.6894,94.6894,122,61,122C27.3106,122,0,94.6894,0,61Z" clip-rule="evenodd" fill="rgb(10,18,47)" fill-rule="evenodd" stroke="none" stroke-width="1"/></mask></g></svg>
